<svg width="86" height="85" viewBox="0 0 86 85" fill="none" xmlns="http://www.w3.org/2000/svg">
<rect width="85.8573" height="84.7544" rx="18" fill="#D4D4D4"/>
<path d="M7.97156 77.5549L78.6822 6.84416C40.9784 46.8334 26.0874 61.7579 37.4667 76.1661C25.2931 68.0038 20.0318 69.4808 7.97156 77.5549Z" fill="#0C0C0C"/>
<path d="M78.6822 6.84407L7.97156 77.5548C45.6754 37.5656 60.5664 22.641 49.1871 8.23281C61.3607 16.3951 66.622 14.9182 78.6822 6.84407Z" fill="#0C0C0C"/>
<path fill-rule="evenodd" clip-rule="evenodd" d="M50.1323 11.5483C38.4059 8.73493 25.5678 12.6745 17.5153 22.7152C10.0066 32.078 8.57993 44.3506 12.7129 54.7508C21.7798 55.5894 32.9597 50.1119 41.1528 39.8959C48.5438 30.68 51.6428 19.9287 50.1323 11.5483ZM37.5649 74.5831C48.569 76.2972 60.1659 72.2339 67.6401 62.9143C75.6526 52.9234 76.7396 39.6191 71.5358 28.8122C63.0544 29.2016 53.2886 34.5544 45.9313 43.7282C37.7798 53.8924 34.849 65.9241 37.5649 74.5831Z" fill="#0C0C0C"/>
</svg>
